<svg xmlns="http://www.w3.org/2000/svg" width="1279.688" height="992.041" viewBox="0 0 1279.688 992.041"><g transform="translate(-0.214 992.541)"><path d="M610.5-991.9c-4.9.5-21.4,2.9-36.5,5.4-47.4,7.9-44.9,7.7-89,8.1-43.1.4-54.2,1.2-71,4.9-43.6,9.7-92.4,40-126.9,78.7-22.5,25.3-39.6,50-72.7,104.8-25.6,42.5-33.8,55.6-46.5,73.6-11,15.7-13.9,21.3-17,33-2.1,7.6-2.2,10-2.3,64.9-.2,63.4-.3,65.3-7.2,86.5-7.1,21.6-15.4,35.5-47.3,79.5C47-387.8,13.6-333.1,4.7-306.2-2.9-283.1-1-264.6,11.6-240c7,13.7,16.2,26,29.3,39.1,39.2,39.1,91.8,64.5,145,70,16.2,1.7,51.9.6,69.1-2,51.5-7.9,108.9-25.5,161.8-49.7,28.7-13.1,46.2-23,62.5-35.4,7.6-5.8,20.1-15.2,27.7-21,20.1-15.3,31.6-20.4,38.3-16.8,4.2,2.1,37.1,49.6,50.3,72.4,21.1,36.5,33.8,68.2,57.9,144.5,5.2,16.2,10.3,31.5,11.5,34l2,4.4-.5-4.3C665.2-15,646.1-75.6,630.2-120c-15-42-24.4-65.2-37.2-92-10.4-21.9-11.3-24.8-11.2-36,.1-16.8,5.3-35.9,19.4-71,3.9-9.6,7.7-19.5,8.4-21.9l1.4-4.5-2.6,2.5c-1.5,1.3-12.9,13.4-25.4,26.9-44.7,48-74.5,72.6-118.5,97.5-53.7,30.5-132.2,56.6-200,66.4-59,8.6-105,3.9-140.9-14.3-13.6-6.9-22.2-13.1-32.1-23.1-7.3-7.2-18.3-22-17.3-23,.2-.3,2.9.5,5.9,1.7,7.7,2.9,17.7,2.9,24.8-.3,12.4-5.3,29.2-20.3,46-40.8,29.2-35.9,33.6-53.1,17.4-68.2-5.7-5.4-15.1-10.1-26-13.1-11.3-3.2-38.2-3.2-57.5,0A175.141,175.141,0,0,1,63.6-331c-6.8,0-7.7-.2-9.1-2.3-2.8-4.4-.4-9.7,18.5-41.7,7-11.8,20.5-35,30-51.5,34.2-59.2,47.7-80.3,72.7-113.7,20.6-27.6,25.3-34.6,30.3-45,7-14.8,7.3-27.1.9-42.4-1.7-4-8.6-16.5-15.3-27.8-17.4-29.1-19.8-38.7-13.3-52.9,3.6-8,11.1-15.5,33.2-33.2,30.9-24.7,38.9-34,74.4-85.8,28.7-42,55.9-70.4,86.1-89.9,31.3-20.3,71.1-34.8,111.5-40.7,11.3-1.7,19-2.1,40-2.1,14.3,0,31.2.5,37.5,1.1s28.4,1.2,49,1.4c49.4.3,63.1,2.1,91.1,11.5,46,15.5,100.3,44.9,182.1,98.6,48,31.5,99.8,69.9,138.8,102.8,19.1,16.2,45.8,42.6,57,56.6q53.4,66.9,53.4,147c0,36.1-6.1,61.6-22.9,95.5-16.7,33.7-40.9,66.3-76,102.4-54.2,55.6-98.8,81.6-157.5,91.7a261.935,261.935,0,0,1-30.1,3.1c-53.7,2.1-75.8-14.3-87.9-65.2-10.5-43.6-11.7-106-4.5-224.5,7.1-116.2,7.9-137,7.2-167.5-1.2-44-5.4-70.3-15.2-95-12.7-31.9-37.4-61.8-60.8-73.6-19.3-9.8-32.1-.6-32,23.1.1,9.8,1.2,15.1,5.4,26.1,5.7,14.7,14.8,26.9,46.4,61.9,17.3,19.2,23.8,27.2,29.4,36.4,16.9,27.9,19.2,68,9,159.1-1.1,9.9-4.9,41.8-8.4,71-11.3,93.2-13,113.3-12.2,150.4.7,36,4.4,54.8,15.2,76.6,20.2,41,60.9,60.8,116,56.6,58.7-4.5,123.8-31.9,180.5-76,51.2-39.7,100.6-97.5,129-150.6,2.9-5.5,5.5-10.2,5.7-10.4.2-.3,1.6.7,3.1,2.1s12.2,10.1,23.7,19.3c33.5,26.9,37.8,30.7,60.1,52.7,11.7,11.4,21.9,20.8,22.8,20.8,2.6,0,1.9-3.4-2.7-12.3-5.5-10.6-12.7-20.8-26.3-37.2-17.2-20.7-54.3-56.9-68.3-66.7l-2.3-1.6,3.5-9.3c9.4-25.1,13.7-47.6,14.4-75.9.5-18.9.3-23-1.6-33.9-4.9-28.7-16.5-53.3-36.7-77.7-22.2-26.9-75.8-74.8-136.5-121.9C938.5-856.4,852.6-912.3,781-948.4c-49.5-25-81.2-36.5-116.5-42.2C653.4-992.4,622.7-993.2,610.5-991.9Z"/><path d="M378.1-690.5c-7.1,1.6-12.4,4.8-14,8.3-2.9,6.2,0,17.7,7.7,31.1C383-631.7,399-612.7,411-604.7c10.7,7.2,24.1,9.5,34.6,5.9,8.9-3.1,15.8-8.1,29.4-21.4,7.2-7.1,15-13.8,17.3-15a34.883,34.883,0,0,1,10.7-2.7l6.5-.6-.2-3.4c-.1-2-1.6-5.4-3.9-8.8-11.3-16.3-34.7-26.5-83.8-36.4C398.4-691.7,387.3-692.6,378.1-690.5Z"/></g></svg>